<svg xmlns="http://www.w3.org/2000/svg" viewBox="0 0 512 512"><defs><style>.cls-1{fill:none;}.cls-2{fill:#333;}.cls-3{fill:#ff6464;}</style></defs><g id="Layer_2" data-name="Layer 2"><g id="Layer_4" data-name="Layer 4"><circle class="cls-1" cx="256" cy="256" r="256"/></g><g id="Adjust"><path class="cls-2" d="M84.08,167.48h343.8a6.6,6.6,0,1,0,0-13.2H84.08a6.6,6.6,0,0,0,0,13.2Z"/><path class="cls-2" d="M427.88,344.52H84.12a6.62,6.62,0,0,0,0,13.24H427.88a6.62,6.62,0,0,0,0-13.24Z"/><path class="cls-2" d="M427.88,249.38H84.12a6.62,6.62,0,0,0,0,13.24H427.88a6.62,6.62,0,0,0,0-13.24Z"/><path class="cls-3" d="M220.94,351.12a39.66,39.66,0,1,1-39.64-39.64,39.66,39.66,0,0,1,39.64,39.64Z"/><path class="cls-3" d="M399.75,256a39.66,39.66,0,1,1-39.63-39.63A39.65,39.65,0,0,1,399.75,256Z"/><path class="cls-3" d="M167,160.84a39.66,39.66,0,1,1-39.63-39.63A39.66,39.66,0,0,1,167,160.84Z"/></g></g></svg>