<svg xmlns="http://www.w3.org/2000/svg" viewBox="0 0 512 512"><defs><style>.cls-1{fill:none;}.cls-2{fill:#333;}.cls-3{fill:#ff6464;}</style></defs><g id="Layer_2" data-name="Layer 2"><g id="Layer_4" data-name="Layer 4"><circle class="cls-1" cx="256" cy="256" r="256"/></g><g id="Download"><path class="cls-2" d="M385.41,166.59c0-1.32.44-3.07.44-4.82a58.73,58.73,0,0,0-58.73-58.72,57.29,57.29,0,0,0-36.81,13.14C275.41,87.71,245.61,68,211.43,68a88.28,88.28,0,0,0-88.52,88.52,77.28,77.28,0,0,0,.44,10.08,71.82,71.82,0,0,0,7,143.3H381.9a71.69,71.69,0,0,0,3.51-143.3Z"/><polygon class="cls-3" points="150.74 342.76 215.51 342.76 215.51 241.91 297.19 241.91 297.19 342.76 361.52 342.76 256.35 458.01 150.74 342.76"/></g></g></svg>